<svg version="1.1" id="Layer_1" xmlns="http://www.w3.org/2000/svg" xmlns:xlink="http://www.w3.org/1999/xlink" x="0px" y="0px"
	 width="100%" viewBox="0 0 205 164" enable-background="new 0 0 205 164" xml:spac="preserve">
<path fill="#00000000" opacity="1.000000" stroke="none" 
	d="
M206.000000,73.000000 
	C206.000000,103.560646 206.000000,134.121292 206.000000,165.000000 
	C194.647751,165.000000 183.292542,165.000000 171.398605,164.651016 
	C173.705078,159.818359 177.594009,155.670822 179.169586,150.778290 
	C182.095245,141.693359 176.219864,131.508224 167.165573,127.824036 
	C158.044220,124.112549 147.643936,127.434364 142.336044,135.754486 
	C137.257553,143.715027 138.785110,155.395645 145.637985,161.702744 
	C146.611908,162.599106 147.221695,163.891113 148.000000,165.000000 
	C126.312439,165.000000 104.624878,165.000000 82.367325,164.653717 
	C82.720337,163.150558 83.552444,161.904892 84.581650,160.851837 
	C89.735497,155.578491 91.519020,149.380768 89.903030,142.188690 
	C87.937920,133.442871 81.395691,127.720200 71.711227,126.298355 
	C64.854568,125.291695 55.363754,130.639847 51.995300,137.408463 
	C48.318233,144.797195 49.739384,154.546188 55.235115,160.631683 
	C56.373409,161.892105 57.089386,163.533951 58.000000,165.000000 
	C39.018238,165.000000 20.036478,165.000000 1.027358,165.000000 
	C1.027358,110.404060 1.027358,55.808102 1.027358,1.106073 
	C69.333229,1.106073 137.666595,1.106073 206.000000,1.106073 
	C206.000000,10.747954 206.000000,20.405319 205.651718,30.635206 
	C204.546600,30.596458 203.647186,30.098907 203.054871,29.356390 
	C196.891190,21.629566 188.720581,17.857674 178.668091,16.809153 
	C172.829208,16.401970 167.354980,16.048536 161.879654,16.030931 
	C124.251907,15.909940 86.623932,15.859206 48.930325,15.453834 
	C45.264050,8.355927 39.578815,4.718067 31.695454,3.630312 
	C23.877108,3.317972 16.381350,3.269772 8.521523,3.326822 
	C7.946348,3.570876 7.735241,3.709679 7.558196,3.863225 
	C7.592257,3.877967 7.689430,3.780735 7.268662,3.999613 
	C6.058098,4.742237 5.268301,5.265982 4.506269,5.792376 
	C4.534032,5.795024 4.613487,5.721581 4.440833,5.887578 
	C4.268179,6.053574 3.985280,6.440127 3.751044,6.689506 
	C3.679513,8.968431 3.842219,10.997978 4.017547,13.003036 
	C4.030169,12.978548 3.975220,12.982630 4.088465,13.234085 
	C4.497385,13.699722 4.793060,13.913902 5.237638,14.291136 
	C5.795779,14.604255 6.205015,14.754319 6.965818,15.194680 
	C13.878324,15.609523 20.439262,15.734070 27.404087,15.902771 
	C36.266651,16.626339 38.116032,18.868210 37.150581,27.118416 
	C36.727863,30.730715 36.491703,34.364777 36.073315,37.977665 
	C34.514343,51.439720 32.867718,64.891777 31.351316,78.358543 
	C30.631809,84.748322 29.269609,91.224022 29.718805,97.552895 
	C30.556482,109.355247 41.652271,119.578613 54.141968,121.203529 
	C63.342159,121.583054 72.179726,121.711876 81.482964,121.885750 
	C111.734596,121.934364 141.526321,122.246094 171.301758,121.688332 
	C177.451126,121.573143 183.905807,118.958313 189.555328,116.156013 
	C195.402206,113.255791 199.883545,108.184692 200.888000,101.246567 
	C202.139297,92.603439 202.960464,83.898575 204.110062,75.239311 
	C204.218369,74.423615 205.345749,73.743217 206.000000,73.000000 
z"/>
<path fill="#0B8907" opacity="1.000000" stroke="none" 
	d="
M32.018040,3.894450 
	C39.578815,4.718067 45.264050,8.355927 49.139870,15.669012 
	C51.022522,16.500330 52.629761,17.031372 54.237366,17.032488 
	C95.835632,17.061346 137.433945,17.035051 179.032242,17.018299 
	C188.720581,17.857674 196.891190,21.629566 203.054871,29.356390 
	C203.647186,30.098907 204.546600,30.596458 205.651718,31.103863 
	C206.000000,44.687561 206.000000,58.375122 206.000000,72.531342 
	C205.345749,73.743217 204.218369,74.423615 204.110062,75.239311 
	C202.960464,83.898575 202.139297,92.603439 200.888000,101.246567 
	C199.883545,108.184692 195.402206,113.255791 189.555328,116.156013 
	C183.905807,118.958313 177.451126,121.573143 171.301758,121.688332 
	C141.526321,122.246094 111.734596,121.934364 81.088394,121.758507 
	C71.411888,121.375084 62.595615,121.163956 53.779346,120.952827 
	C41.652271,119.578613 30.556482,109.355247 29.718805,97.552895 
	C29.269609,91.224022 30.631809,84.748322 31.351316,78.358543 
	C32.867718,64.891777 34.514343,51.439720 36.073315,37.977665 
	C36.491703,34.364777 36.727863,30.730715 37.150581,27.118416 
	C38.116032,18.868210 36.266651,16.626339 27.023098,15.740232 
	C19.696898,15.323821 13.155575,15.114103 6.614251,14.904385 
	C6.205015,14.754319 5.795779,14.604255 5.088625,14.064957 
	C4.518878,13.444693 4.247049,13.213661 3.975220,12.982630 
	C3.975220,12.982630 4.030169,12.978548 4.048236,12.586884 
	C4.039296,10.276855 4.012288,8.358491 3.985280,6.440127 
	C3.985280,6.440127 4.268179,6.053574 4.418586,5.899625 
	C4.568993,5.745677 4.478504,5.789727 4.478504,5.789727 
	C5.268301,5.265982 6.058098,4.742237 7.240442,4.010830 
	C7.632990,3.803169 7.524134,3.848482 7.524134,3.848482 
	C7.735241,3.709679 7.946348,3.570876 8.924024,3.465246 
	C17.133074,3.630429 24.575558,3.762440 32.018040,3.894450 
M51.239265,29.054575 
	C50.138943,34.287266 48.652752,39.473099 48.010551,44.761425 
	C46.072319,60.722164 44.646641,76.746155 42.622272,92.694862 
	C41.927853,98.165794 43.558563,102.036278 47.882053,105.048409 
	C53.741798,109.130844 60.535702,109.920197 67.337929,109.952927 
	C95.971840,110.090729 124.606941,110.067848 153.241196,109.975624 
	C159.534485,109.955353 165.892609,109.882576 172.104263,109.006905 
	C184.131393,107.311417 189.473785,101.850433 190.207520,89.992569 
	C190.994278,77.277679 192.370300,64.580696 194.000443,51.941845 
	C195.587311,39.638443 192.955719,34.010609 182.767242,30.428659 
	C180.905792,29.774233 178.956787,29.368900 176.251526,28.607162 
	C174.102493,28.411533 171.953613,28.047474 169.804382,28.045326 
	C132.670654,28.008244 95.536842,28.002903 58.403114,28.046535 
	C56.265774,28.049047 54.128998,28.529833 51.239265,29.054575 
z"/>
<path fill="#0C8709" opacity="1.000000" stroke="none"
	d="
M58.468636,165.000000 
	C57.089386,163.533951 56.373409,161.892105 55.235115,160.631683 
	C49.739384,154.546188 48.318233,144.797195 51.995300,137.408463 
	C55.363754,130.639847 64.854568,125.291695 71.711227,126.298355 
	C81.395691,127.720200 87.937920,133.442871 89.903030,142.188690 
	C91.519020,149.380768 89.735497,155.578491 84.581650,160.851837 
	C83.552444,161.904892 82.720337,163.150558 81.898666,164.653717 
	C74.312424,165.000000 66.624847,165.000000 58.468636,165.000000 
M77.583130,148.031036 
	C77.570946,142.630554 75.006058,139.176788 70.486031,139.138840 
	C66.893036,139.108658 64.070938,140.897858 63.087715,144.552246 
	C62.064816,148.354080 64.467728,152.711548 67.908455,153.825134 
	C71.682350,155.046570 75.321587,153.070587 77.583130,148.031036 
z"/>
<path fill="#0D8709" opacity="1.000000" stroke="none" 
	d="
M148.468628,165.000000 
	C147.221695,163.891113 146.611908,162.599106 145.637985,161.702744 
	C138.785110,155.395645 137.257553,143.715027 142.336044,135.754486 
	C147.643936,127.434364 158.044220,124.112549 167.165573,127.824036 
	C176.219864,131.508224 182.095245,141.693359 179.169586,150.778290 
	C177.594009,155.670822 173.705078,159.818359 170.929947,164.651016 
	C163.645752,165.000000 156.291504,165.000000 148.468628,165.000000 
M152.329803,148.821243 
	C154.001160,152.864532 157.112823,155.285049 161.253662,153.742340 
	C163.577515,152.876556 166.025757,150.138367 166.768875,147.734100 
	C167.996338,143.762726 164.388321,139.297791 160.769150,139.050156 
	C155.818237,138.711395 152.217255,142.454819 152.329803,148.821243 
z"/>
<path fill="#2C7426" opacity="1.000000" stroke="none" 
	d="
M178.668091,16.809151 
	C137.433945,17.035051 95.835632,17.061346 54.237366,17.032488 
	C52.629761,17.031372 51.022522,16.500330 49.205574,16.001038 
	C86.623932,15.859206 124.251907,15.909940 161.879654,16.030931 
	C167.354980,16.048536 172.829208,16.401970 178.668091,16.809151 
z"/>
<path fill="#267523" opacity="1.000000" stroke="none" 
	d="
M54.141968,121.203529 
	C62.595615,121.163956 71.411888,121.375084 80.622726,121.713455 
	C72.179726,121.711876 63.342159,121.583054 54.141968,121.203529 
z"/>
<path fill="#257E20" opacity="1.000000" stroke="none" 
	d="
M31.695454,3.630312 
	C24.575558,3.762440 17.133074,3.630429 9.288092,3.359994 
	C16.381350,3.269772 23.877108,3.317972 31.695454,3.630312 
z"/>
<path fill="#2B7327" opacity="1.000000" stroke="none" 
	d="
M6.965818,15.194681 
	C13.155575,15.114103 19.696898,15.323821 26.619211,15.696077 
	C20.439262,15.734070 13.878324,15.609523 6.965818,15.194681 
z"/>
<path fill="#2B7327" opacity="1.000000" stroke="none" 
	d="
M3.751044,6.689506 
	C4.012288,8.358491 4.039296,10.276855 4.035614,12.611372 
	C3.842219,10.997978 3.679513,8.968431 3.751044,6.689506 
z"/>
<path fill="#2B7327" opacity="1.000000" stroke="none" 
	d="
M4.088465,13.234085 
	C4.247049,13.213661 4.518878,13.444693 4.939721,13.901903 
	C4.793060,13.913902 4.497385,13.699722 4.088465,13.234085 
z"/>
<path fill="#2B7327" opacity="1.000000" stroke="none" 
	d="
M4.506269,5.792376 
	C4.478504,5.789727 4.568993,5.745677 4.591240,5.733629 
	C4.613487,5.721581 4.534032,5.795024 4.506269,5.792376 
z"/>
<path fill="#257E20" opacity="1.000000" stroke="none" 
	d="
M7.558196,3.863225 
	C7.524134,3.848482 7.632990,3.803169 7.661210,3.791952 
	C7.689430,3.780735 7.592257,3.877967 7.558196,3.863225 
z"/>
<path fill="#00000000" opacity="1.000000" stroke="none" 
	d="
M177.048187,28.848583 
	C178.956787,29.368900 180.905792,29.774233 182.767242,30.428659 
	C192.955719,34.010609 195.587311,39.638443 194.000443,51.941845 
	C192.370300,64.580696 190.994278,77.277679 190.207520,89.992569 
	C189.473785,101.850433 184.131393,107.311417 172.104263,109.006905 
	C165.892609,109.882576 159.534485,109.955353 153.241196,109.975624 
	C124.606941,110.067848 95.971840,110.090729 67.337929,109.952927 
	C60.535702,109.920197 53.741798,109.130844 47.882053,105.048409 
	C43.558563,102.036278 41.927853,98.165794 42.622272,92.694862 
	C44.646641,76.746155 46.072319,60.722164 48.010551,44.761425 
	C48.652752,39.473099 50.138943,34.287266 52.083450,28.986416 
	C94.301155,28.895033 135.674667,28.871807 177.048187,28.848583 
z"/>
<path fill="#22801F" opacity="1.000000" stroke="none" 
	d="
M176.649857,28.727871 
	C135.674667,28.871807 94.301155,28.895033 52.459797,28.853146 
	C54.128998,28.529833 56.265774,28.049047 58.403114,28.046535 
	C95.536842,28.002903 132.670654,28.008244 169.804382,28.045326 
	C171.953613,28.047474 174.102493,28.411533 176.649857,28.727871 
z"/>
<path fill="#000000" opacity="1.000000" stroke="none" 
	d="
M77.429916,148.384781 
	C75.321587,153.070587 71.682350,155.046570 67.908455,153.825134 
	C64.467728,152.711548 62.064816,148.354080 63.087715,144.552246 
	C64.070938,140.897858 66.893036,139.108658 70.486031,139.138840 
	C75.006058,139.176788 77.570946,142.630554 77.429916,148.384781 
z"/>
<path fill="#000000" opacity="1.000000" stroke="none" 
	d="
M152.214508,148.442154 
	C152.217255,142.454819 155.818237,138.711395 160.769150,139.050156 
	C164.388321,139.297791 167.996338,143.762726 166.768875,147.734100 
	C166.025757,150.138367 163.577515,152.876556 161.253662,153.742340 
	C157.112823,155.285049 154.001160,152.864532 152.214508,148.442154 
z"/>
</svg>